<svg xmlns="http://www.w3.org/2000/svg" width="130" height="23">
    <path fill="#595959" fill-rule="evenodd" d="M122.132 22.944h-4.167L113.051 8.7l-4.913 14.244h-4.167L96.538 1.019h5.131l4.509 14.741L111.061.957h4.105l4.883 14.803 4.509-14.741h5.007l-7.433 21.925zM77.691 1.019h16.421v4.26H82.45v4.417h10.262v4.26H82.45v4.572h11.817v4.26H77.691V1.019zm-9.921 0h4.79v21.769h-4.79V1.019zM51.474 22.944L42.673 1.019h5.287l5.691 15.332 5.691-15.332h5.163l-8.801 21.925h-4.23zM24.013 1.019h16.421v4.26H28.771v4.417h10.263v4.26H28.771v4.572h11.818v4.26H24.013V1.019zM8.494 22.788H.004V1.019h8.49c6.842 0 11.569 4.696 11.569 10.822v.063c0 6.126-4.727 10.884-11.569 10.884zm6.562-10.884c0-3.857-2.643-6.563-6.562-6.563H4.793v13.124h3.701c3.919 0 6.562-2.643 6.562-6.499v-.062z"/>
</svg>
